<mxfile host="app.diagrams.net" modified="2023-09-16T23:15:40.915Z" agent="Mozilla/5.0 (X11; Ubuntu; Linux x86_64; rv:109.0) Gecko/20100101 Firefox/117.0" etag="VsjyDYinEDLfd1OaiUNz" version="21.7.5" type="github">
  <diagram name="Page-1" id="5mjGmZFohFLDIY7W3VE4">
    <mxGraphModel dx="472" dy="615" grid="1" gridSize="10" guides="1" tooltips="1" connect="1" arrows="1" fold="1" page="1" pageScale="1" pageWidth="1390" pageHeight="980" math="0" shadow="0">
      <root>
        <mxCell id="0" />
        <mxCell id="1" parent="0" />
        <mxCell id="Lf-CYjyZpFA01j1R-qf0-3" style="edgeStyle=orthogonalEdgeStyle;orthogonalLoop=1;jettySize=auto;html=1;exitX=0.5;exitY=1;exitDx=0;exitDy=0;entryX=0.5;entryY=0;entryDx=0;entryDy=0;endArrow=none;endFill=0;curved=1;" edge="1" parent="1" source="Lf-CYjyZpFA01j1R-qf0-1" target="Lf-CYjyZpFA01j1R-qf0-2">
          <mxGeometry relative="1" as="geometry" />
        </mxCell>
        <mxCell id="Lf-CYjyZpFA01j1R-qf0-7" style="edgeStyle=orthogonalEdgeStyle;shape=connector;curved=1;rounded=1;orthogonalLoop=1;jettySize=auto;html=1;exitX=0.5;exitY=0;exitDx=0;exitDy=0;entryX=0.5;entryY=1;entryDx=0;entryDy=0;labelBackgroundColor=default;strokeColor=default;fontFamily=Helvetica;fontSize=11;fontColor=default;endArrow=none;endFill=0;" edge="1" parent="1" source="Lf-CYjyZpFA01j1R-qf0-1" target="Lf-CYjyZpFA01j1R-qf0-6">
          <mxGeometry relative="1" as="geometry" />
        </mxCell>
        <mxCell id="Lf-CYjyZpFA01j1R-qf0-8" style="edgeStyle=orthogonalEdgeStyle;shape=connector;curved=1;rounded=1;orthogonalLoop=1;jettySize=auto;html=1;exitX=0.25;exitY=0;exitDx=0;exitDy=0;entryX=0.5;entryY=1;entryDx=0;entryDy=0;labelBackgroundColor=default;strokeColor=default;fontFamily=Helvetica;fontSize=11;fontColor=default;endArrow=none;endFill=0;" edge="1" parent="1" source="Lf-CYjyZpFA01j1R-qf0-1" target="Lf-CYjyZpFA01j1R-qf0-4">
          <mxGeometry relative="1" as="geometry" />
        </mxCell>
        <mxCell id="Lf-CYjyZpFA01j1R-qf0-1" value="producto" style="rounded=1;arcSize=10;whiteSpace=wrap;html=1;align=center;" vertex="1" parent="1">
          <mxGeometry x="480" y="160" width="100" height="40" as="geometry" />
        </mxCell>
        <mxCell id="Lf-CYjyZpFA01j1R-qf0-12" style="edgeStyle=orthogonalEdgeStyle;shape=connector;curved=1;rounded=1;orthogonalLoop=1;jettySize=auto;html=1;exitX=0.5;exitY=1;exitDx=0;exitDy=0;entryX=0.5;entryY=0;entryDx=0;entryDy=0;labelBackgroundColor=default;strokeColor=default;fontFamily=Helvetica;fontSize=11;fontColor=default;endArrow=none;endFill=0;" edge="1" parent="1" source="Lf-CYjyZpFA01j1R-qf0-2" target="Lf-CYjyZpFA01j1R-qf0-9">
          <mxGeometry relative="1" as="geometry" />
        </mxCell>
        <mxCell id="Lf-CYjyZpFA01j1R-qf0-13" style="edgeStyle=orthogonalEdgeStyle;shape=connector;curved=1;rounded=1;orthogonalLoop=1;jettySize=auto;html=1;exitX=0.5;exitY=1;exitDx=0;exitDy=0;entryX=0.5;entryY=0;entryDx=0;entryDy=0;labelBackgroundColor=default;strokeColor=default;fontFamily=Helvetica;fontSize=11;fontColor=default;endArrow=none;endFill=0;" edge="1" parent="1" source="Lf-CYjyZpFA01j1R-qf0-2" target="Lf-CYjyZpFA01j1R-qf0-10">
          <mxGeometry relative="1" as="geometry" />
        </mxCell>
        <mxCell id="Lf-CYjyZpFA01j1R-qf0-14" style="edgeStyle=orthogonalEdgeStyle;shape=connector;curved=1;rounded=1;orthogonalLoop=1;jettySize=auto;html=1;exitX=0.5;exitY=1;exitDx=0;exitDy=0;entryX=0.5;entryY=0;entryDx=0;entryDy=0;labelBackgroundColor=default;strokeColor=default;fontFamily=Helvetica;fontSize=11;fontColor=default;endArrow=none;endFill=0;" edge="1" parent="1" source="Lf-CYjyZpFA01j1R-qf0-2" target="Lf-CYjyZpFA01j1R-qf0-11">
          <mxGeometry relative="1" as="geometry" />
        </mxCell>
        <mxCell id="Lf-CYjyZpFA01j1R-qf0-36" style="edgeStyle=orthogonalEdgeStyle;shape=connector;curved=1;rounded=1;orthogonalLoop=1;jettySize=auto;html=1;exitX=0.5;exitY=1;exitDx=0;exitDy=0;entryX=0.5;entryY=0;entryDx=0;entryDy=0;labelBackgroundColor=default;strokeColor=default;fontFamily=Helvetica;fontSize=11;fontColor=default;endArrow=none;endFill=0;" edge="1" parent="1" source="Lf-CYjyZpFA01j1R-qf0-2" target="Lf-CYjyZpFA01j1R-qf0-29">
          <mxGeometry relative="1" as="geometry" />
        </mxCell>
        <mxCell id="Lf-CYjyZpFA01j1R-qf0-2" value="es" style="shape=rhombus;perimeter=rhombusPerimeter;whiteSpace=wrap;html=1;align=center;" vertex="1" parent="1">
          <mxGeometry x="470" y="280" width="120" height="60" as="geometry" />
        </mxCell>
        <mxCell id="Lf-CYjyZpFA01j1R-qf0-4" value="Año" style="ellipse;whiteSpace=wrap;html=1;align=center;fontFamily=Helvetica;fontSize=11;fontColor=default;" vertex="1" parent="1">
          <mxGeometry x="400" y="40" width="100" height="40" as="geometry" />
        </mxCell>
        <mxCell id="Lf-CYjyZpFA01j1R-qf0-6" value="Título" style="ellipse;whiteSpace=wrap;html=1;align=center;fontStyle=4;fontFamily=Helvetica;fontSize=11;fontColor=default;" vertex="1" parent="1">
          <mxGeometry x="550" y="40" width="100" height="40" as="geometry" />
        </mxCell>
        <mxCell id="Lf-CYjyZpFA01j1R-qf0-27" style="edgeStyle=orthogonalEdgeStyle;shape=connector;curved=1;rounded=1;orthogonalLoop=1;jettySize=auto;html=1;exitX=0.5;exitY=1;exitDx=0;exitDy=0;entryX=0.5;entryY=0;entryDx=0;entryDy=0;labelBackgroundColor=default;strokeColor=default;fontFamily=Helvetica;fontSize=11;fontColor=default;endArrow=none;endFill=0;" edge="1" parent="1" source="Lf-CYjyZpFA01j1R-qf0-9" target="Lf-CYjyZpFA01j1R-qf0-26">
          <mxGeometry relative="1" as="geometry" />
        </mxCell>
        <mxCell id="Lf-CYjyZpFA01j1R-qf0-28" style="edgeStyle=orthogonalEdgeStyle;shape=connector;curved=1;rounded=1;orthogonalLoop=1;jettySize=auto;html=1;exitX=0.25;exitY=1;exitDx=0;exitDy=0;entryX=0;entryY=0;entryDx=0;entryDy=0;labelBackgroundColor=default;strokeColor=default;fontFamily=Helvetica;fontSize=11;fontColor=default;endArrow=none;endFill=0;" edge="1" parent="1" source="Lf-CYjyZpFA01j1R-qf0-9" target="Lf-CYjyZpFA01j1R-qf0-16">
          <mxGeometry relative="1" as="geometry" />
        </mxCell>
        <mxCell id="Lf-CYjyZpFA01j1R-qf0-9" value="libro" style="rounded=1;arcSize=10;whiteSpace=wrap;html=1;align=center;fontFamily=Helvetica;fontSize=11;fontColor=default;" vertex="1" parent="1">
          <mxGeometry x="410" y="440" width="100" height="40" as="geometry" />
        </mxCell>
        <mxCell id="Lf-CYjyZpFA01j1R-qf0-22" style="edgeStyle=orthogonalEdgeStyle;shape=connector;curved=1;rounded=1;orthogonalLoop=1;jettySize=auto;html=1;exitX=0.25;exitY=1;exitDx=0;exitDy=0;entryX=0;entryY=0.5;entryDx=0;entryDy=0;labelBackgroundColor=default;strokeColor=default;fontFamily=Helvetica;fontSize=11;fontColor=default;endArrow=none;endFill=0;" edge="1" parent="1" source="Lf-CYjyZpFA01j1R-qf0-10" target="Lf-CYjyZpFA01j1R-qf0-17">
          <mxGeometry relative="1" as="geometry" />
        </mxCell>
        <mxCell id="Lf-CYjyZpFA01j1R-qf0-10" value="dvd" style="rounded=1;arcSize=10;whiteSpace=wrap;html=1;align=center;fontFamily=Helvetica;fontSize=11;fontColor=default;" vertex="1" parent="1">
          <mxGeometry x="550" y="440" width="100" height="40" as="geometry" />
        </mxCell>
        <mxCell id="Lf-CYjyZpFA01j1R-qf0-24" style="edgeStyle=orthogonalEdgeStyle;shape=connector;curved=1;rounded=1;orthogonalLoop=1;jettySize=auto;html=1;exitX=0.5;exitY=1;exitDx=0;exitDy=0;entryX=0.5;entryY=0;entryDx=0;entryDy=0;labelBackgroundColor=default;strokeColor=default;fontFamily=Helvetica;fontSize=11;fontColor=default;endArrow=none;endFill=0;" edge="1" parent="1" source="Lf-CYjyZpFA01j1R-qf0-11" target="Lf-CYjyZpFA01j1R-qf0-23">
          <mxGeometry relative="1" as="geometry" />
        </mxCell>
        <mxCell id="Lf-CYjyZpFA01j1R-qf0-25" style="edgeStyle=orthogonalEdgeStyle;shape=connector;curved=1;rounded=1;orthogonalLoop=1;jettySize=auto;html=1;exitX=0.25;exitY=1;exitDx=0;exitDy=0;entryX=0;entryY=0.5;entryDx=0;entryDy=0;labelBackgroundColor=default;strokeColor=default;fontFamily=Helvetica;fontSize=11;fontColor=default;endArrow=none;endFill=0;" edge="1" parent="1" source="Lf-CYjyZpFA01j1R-qf0-11" target="Lf-CYjyZpFA01j1R-qf0-18">
          <mxGeometry relative="1" as="geometry" />
        </mxCell>
        <mxCell id="Lf-CYjyZpFA01j1R-qf0-11" value="bluray" style="rounded=1;arcSize=10;whiteSpace=wrap;html=1;align=center;fontFamily=Helvetica;fontSize=11;fontColor=default;" vertex="1" parent="1">
          <mxGeometry x="700" y="440" width="100" height="40" as="geometry" />
        </mxCell>
        <mxCell id="Lf-CYjyZpFA01j1R-qf0-16" value="Precio" style="ellipse;whiteSpace=wrap;html=1;align=center;fontFamily=Helvetica;fontSize=11;fontColor=default;" vertex="1" parent="1">
          <mxGeometry x="350" y="590" width="100" height="40" as="geometry" />
        </mxCell>
        <mxCell id="Lf-CYjyZpFA01j1R-qf0-17" value="Precio" style="ellipse;whiteSpace=wrap;html=1;align=center;fontFamily=Helvetica;fontSize=11;fontColor=default;" vertex="1" parent="1">
          <mxGeometry x="570" y="590" width="100" height="40" as="geometry" />
        </mxCell>
        <mxCell id="Lf-CYjyZpFA01j1R-qf0-18" value="Precio" style="ellipse;whiteSpace=wrap;html=1;align=center;fontFamily=Helvetica;fontSize=11;fontColor=default;" vertex="1" parent="1">
          <mxGeometry x="750" y="580" width="100" height="40" as="geometry" />
        </mxCell>
        <mxCell id="Lf-CYjyZpFA01j1R-qf0-21" style="edgeStyle=orthogonalEdgeStyle;shape=connector;curved=1;rounded=1;orthogonalLoop=1;jettySize=auto;html=1;exitX=0.5;exitY=0;exitDx=0;exitDy=0;entryX=0.5;entryY=1;entryDx=0;entryDy=0;labelBackgroundColor=default;strokeColor=default;fontFamily=Helvetica;fontSize=11;fontColor=default;endArrow=none;endFill=0;" edge="1" parent="1" source="Lf-CYjyZpFA01j1R-qf0-20" target="Lf-CYjyZpFA01j1R-qf0-10">
          <mxGeometry relative="1" as="geometry" />
        </mxCell>
        <mxCell id="Lf-CYjyZpFA01j1R-qf0-20" value="CódigoBarras" style="ellipse;whiteSpace=wrap;html=1;align=center;fontStyle=4;fontFamily=Helvetica;fontSize=11;fontColor=default;" vertex="1" parent="1">
          <mxGeometry x="570" y="530" width="100" height="40" as="geometry" />
        </mxCell>
        <mxCell id="Lf-CYjyZpFA01j1R-qf0-23" value="CódigoBarras" style="ellipse;whiteSpace=wrap;html=1;align=center;fontStyle=4;fontFamily=Helvetica;fontSize=11;fontColor=default;" vertex="1" parent="1">
          <mxGeometry x="760" y="520" width="100" height="40" as="geometry" />
        </mxCell>
        <mxCell id="Lf-CYjyZpFA01j1R-qf0-26" value="ISBN" style="ellipse;whiteSpace=wrap;html=1;align=center;fontStyle=4;fontFamily=Helvetica;fontSize=11;fontColor=default;" vertex="1" parent="1">
          <mxGeometry x="420" y="530" width="100" height="40" as="geometry" />
        </mxCell>
        <mxCell id="Lf-CYjyZpFA01j1R-qf0-33" style="edgeStyle=orthogonalEdgeStyle;shape=connector;curved=1;rounded=1;orthogonalLoop=1;jettySize=auto;html=1;exitX=0.5;exitY=1;exitDx=0;exitDy=0;entryX=0.5;entryY=0;entryDx=0;entryDy=0;labelBackgroundColor=default;strokeColor=default;fontFamily=Helvetica;fontSize=11;fontColor=default;endArrow=none;endFill=0;" edge="1" parent="1" source="Lf-CYjyZpFA01j1R-qf0-29" target="Lf-CYjyZpFA01j1R-qf0-32">
          <mxGeometry relative="1" as="geometry" />
        </mxCell>
        <mxCell id="Lf-CYjyZpFA01j1R-qf0-35" style="edgeStyle=orthogonalEdgeStyle;shape=connector;curved=1;rounded=1;orthogonalLoop=1;jettySize=auto;html=1;exitX=0.25;exitY=1;exitDx=0;exitDy=0;entryX=0;entryY=0;entryDx=0;entryDy=0;labelBackgroundColor=default;strokeColor=default;fontFamily=Helvetica;fontSize=11;fontColor=default;endArrow=none;endFill=0;" edge="1" parent="1" source="Lf-CYjyZpFA01j1R-qf0-29" target="Lf-CYjyZpFA01j1R-qf0-34">
          <mxGeometry relative="1" as="geometry" />
        </mxCell>
        <mxCell id="Lf-CYjyZpFA01j1R-qf0-29" value="video" style="rounded=1;arcSize=10;whiteSpace=wrap;html=1;align=center;fontFamily=Helvetica;fontSize=11;fontColor=default;" vertex="1" parent="1">
          <mxGeometry x="240" y="400" width="100" height="40" as="geometry" />
        </mxCell>
        <mxCell id="Lf-CYjyZpFA01j1R-qf0-32" value="URL" style="ellipse;whiteSpace=wrap;html=1;align=center;fontStyle=4;fontFamily=Helvetica;fontSize=11;fontColor=default;" vertex="1" parent="1">
          <mxGeometry x="240" y="520" width="100" height="40" as="geometry" />
        </mxCell>
        <mxCell id="Lf-CYjyZpFA01j1R-qf0-34" value="Precio" style="ellipse;whiteSpace=wrap;html=1;align=center;fontFamily=Helvetica;fontSize=11;fontColor=default;" vertex="1" parent="1">
          <mxGeometry x="180" y="580" width="100" height="40" as="geometry" />
        </mxCell>
        <mxCell id="Lf-CYjyZpFA01j1R-qf0-43" style="edgeStyle=orthogonalEdgeStyle;shape=connector;curved=1;rounded=1;orthogonalLoop=1;jettySize=auto;html=1;exitX=0.5;exitY=0;exitDx=0;exitDy=0;entryX=0.5;entryY=1;entryDx=0;entryDy=0;labelBackgroundColor=default;strokeColor=default;fontFamily=Helvetica;fontSize=11;fontColor=default;endArrow=none;endFill=0;" edge="1" parent="1" source="Lf-CYjyZpFA01j1R-qf0-37" target="Lf-CYjyZpFA01j1R-qf0-39">
          <mxGeometry relative="1" as="geometry" />
        </mxCell>
        <mxCell id="Lf-CYjyZpFA01j1R-qf0-44" style="edgeStyle=orthogonalEdgeStyle;shape=connector;curved=1;rounded=1;orthogonalLoop=1;jettySize=auto;html=1;exitX=0.5;exitY=0;exitDx=0;exitDy=0;entryX=0.5;entryY=1;entryDx=0;entryDy=0;labelBackgroundColor=default;strokeColor=default;fontFamily=Helvetica;fontSize=11;fontColor=default;endArrow=none;endFill=0;" edge="1" parent="1" source="Lf-CYjyZpFA01j1R-qf0-37" target="Lf-CYjyZpFA01j1R-qf0-40">
          <mxGeometry relative="1" as="geometry" />
        </mxCell>
        <mxCell id="Lf-CYjyZpFA01j1R-qf0-45" style="edgeStyle=orthogonalEdgeStyle;shape=connector;curved=1;rounded=1;orthogonalLoop=1;jettySize=auto;html=1;exitX=1;exitY=0.5;exitDx=0;exitDy=0;labelBackgroundColor=default;strokeColor=default;fontFamily=Helvetica;fontSize=11;fontColor=default;endArrow=none;endFill=0;" edge="1" parent="1" source="Lf-CYjyZpFA01j1R-qf0-37" target="Lf-CYjyZpFA01j1R-qf0-41">
          <mxGeometry relative="1" as="geometry" />
        </mxCell>
        <mxCell id="Lf-CYjyZpFA01j1R-qf0-37" value="proveedor" style="rounded=1;arcSize=10;whiteSpace=wrap;html=1;align=center;fontFamily=Helvetica;fontSize=11;fontColor=default;" vertex="1" parent="1">
          <mxGeometry x="930" y="160" width="100" height="40" as="geometry" />
        </mxCell>
        <mxCell id="Lf-CYjyZpFA01j1R-qf0-42" style="edgeStyle=orthogonalEdgeStyle;shape=connector;curved=1;rounded=1;orthogonalLoop=1;jettySize=auto;html=1;exitX=0.5;exitY=1;exitDx=0;exitDy=0;entryX=0.5;entryY=0;entryDx=0;entryDy=0;labelBackgroundColor=default;strokeColor=default;fontFamily=Helvetica;fontSize=11;fontColor=default;endArrow=none;endFill=0;" edge="1" parent="1" source="Lf-CYjyZpFA01j1R-qf0-38" target="Lf-CYjyZpFA01j1R-qf0-37">
          <mxGeometry relative="1" as="geometry" />
        </mxCell>
        <mxCell id="Lf-CYjyZpFA01j1R-qf0-38" value="&lt;div&gt;Nombre&lt;/div&gt;" style="ellipse;whiteSpace=wrap;html=1;align=center;fontStyle=4;fontFamily=Helvetica;fontSize=11;fontColor=default;" vertex="1" parent="1">
          <mxGeometry x="860" y="50" width="100" height="40" as="geometry" />
        </mxCell>
        <mxCell id="Lf-CYjyZpFA01j1R-qf0-39" value="domicilio" style="ellipse;whiteSpace=wrap;html=1;align=center;fontFamily=Helvetica;fontSize=11;fontColor=default;" vertex="1" parent="1">
          <mxGeometry x="980" y="50" width="100" height="40" as="geometry" />
        </mxCell>
        <mxCell id="Lf-CYjyZpFA01j1R-qf0-40" value="telefono" style="ellipse;whiteSpace=wrap;html=1;align=center;fontFamily=Helvetica;fontSize=11;fontColor=default;" vertex="1" parent="1">
          <mxGeometry x="1110" y="50" width="100" height="40" as="geometry" />
        </mxCell>
        <mxCell id="Lf-CYjyZpFA01j1R-qf0-41" value="URL" style="ellipse;whiteSpace=wrap;html=1;align=center;fontFamily=Helvetica;fontSize=11;fontColor=default;" vertex="1" parent="1">
          <mxGeometry x="1130" y="150" width="100" height="40" as="geometry" />
        </mxCell>
      </root>
    </mxGraphModel>
  </diagram>
</mxfile>
